<svg xmlns="http://www.w3.org/2000/svg" width="22" height="32" viewBox="0 0 22 32"><g><g><path fill="#161616" d="M11 26c-1.312 0-2.293-.192-3.012-.438l.014 1.332c0 1.944 1.087 3.106 2.96 3.106 1.939 0 3.04-1.132 3.04-3.106v-1.353c-.725.254-1.71.459-3.002.459zm-4.987-2.13v-1.694c0-.776-.784-1.405-1.95-2.45-1.809-1.62-4.099-3.84-4.099-8.503C-.036 5.034 4.811 0 11 0c6.189 0 11.037 5.034 11.037 11.223 0 4.378-2.048 6.33-3.845 7.9-1.328 1.16-2.204 1.872-2.204 3.053v1.695a1 1 0 0 1-.009.129h.024v2.894c0 3.054-2.014 5.106-4.966 5.106-3.06 0-5.034-2.052-5.034-5.106V24h.02a.998.998 0 0 1-.009-.13zm2-.397c.41.238 1.233.546 2.97.546 1.654 0 2.53-.315 3.004-.58v-1.263c0-2.147 1.53-3.373 2.888-4.56 1.646-1.438 3.16-2.924 3.16-6.393C20.036 6.137 16.086 2 11 2c-5.085 0-9.035 4.137-9.035 9.223 0 3.77 1.737 5.494 3.434 7.014 1.281 1.148 2.615 2.232 2.615 3.939z"/></g></g></svg>