<svg xmlns="http://www.w3.org/2000/svg" width="32" height="32" viewBox="0 0 32 32"><g><g><path fill="#161616" d="M16 0c8.836 0 16 7.163 16 16 0 8.836-7.164 16-16 16-8.837 0-16-7.164-16-16C0 7.162 7.163 0 16 0zM2.01 16.004c0 .678.048 1.344.14 1.996h6.111a8.014 8.014 0 0 1-.25-1.995c0-.693.087-1.364.253-2.005H2.152a14.117 14.117 0 0 0-.143 2.004zM12 9.083V2.589A14.024 14.024 0 0 0 2.59 12h6.494A8.031 8.031 0 0 1 12 9.084zm0 20.336v-6.492A8.031 8.031 0 0 1 9.078 20h-6.49A14.023 14.023 0 0 0 12 29.42zm4 .58c.679 0 1.347-.048 2-.141v-6.11A8 8 0 0 1 16 24c-.69 0-1.36-.088-2-.253v6.11c.653.094 1.32.143 2 .143zm13.99-13.995c0-.68-.048-1.35-.142-2.004h-6.112c.165.64.253 1.312.253 2.005 0 .689-.087 1.357-.25 1.995h6.11a14.12 14.12 0 0 0 .141-1.996zM20 2.59v6.494A8.031 8.031 0 0 1 22.916 12h6.493A14.024 14.024 0 0 0 20 2.59zm0 20.338v6.492A14.023 14.023 0 0 0 29.412 20h-6.49A8.031 8.031 0 0 1 20 22.928zM16 8.01a8 8 0 0 1 2 .253V2.15a14.104 14.104 0 0 0-4 0v6.112a7.999 7.999 0 0 1 2-.253zm-5.988 7.996A5.99 5.99 0 0 0 16 22a5.99 5.99 0 0 0 5.988-5.994c0-3.31-2.68-5.994-5.988-5.994a5.991 5.991 0 0 0-5.988 5.994z"/></g></g></svg>